<svg xmlns="http://www.w3.org/2000/svg" width="810" height="603.678" viewBox="0 0 810 603.678">
  <g id="Group_91581" data-name="Group 91581" transform="translate(-619 -3463.546)">
    <g id="Illustration" transform="translate(619 3463.546)">
      <g id="Shape" transform="translate(0 0)">
        <g id="Group_59" data-name="Group 59">
          <path id="Path" d="M699.783,167.591a31.675,31.675,0,0,1,51.034,37.53l-.311.422L667.419,316.46a33.806,33.806,0,0,1-45.11,8.307l-.449-.288-52.306-34.215-52.738,76.763A31.692,31.692,0,0,1,473.2,375.5l-.435-.293a31.652,31.652,0,0,1-8.478-43.591l.293-.434L533.69,230.591a33.806,33.806,0,0,1,45.9-9.44l.463.3L633.334,256.3Z" transform="translate(53.171 16.083)" fill="#7367f0" opacity="0.085"/>
          <path id="Path_2" d="M437.518,5.684a8.5,8.5,0,0,1,14.133,9.447l-.1.153L430.842,45.365a9.59,9.59,0,0,1-13.2,2.328l-.153-.106L405.6,39.12,392.709,59.539A8.522,8.522,0,0,1,381.133,62.3l-.155-.1a8.468,8.468,0,0,1-2.764-11.543l.1-.155L395.4,23.424a9.588,9.588,0,0,1,13.2-2.993l.234.152.23.158,12.141,8.644Z" transform="translate(43.471 -2)" fill="#7367f0" opacity="0.085"/>
          <path id="_" data-name="+" d="M637.163,137.782a2.8,2.8,0,0,0,2.8-2.8v-20.1h20.117a2.8,2.8,0,0,0,2.8-2.8v-9.678a2.8,2.8,0,0,0-2.8-2.8H639.959V79.362a2.8,2.8,0,0,0-2.8-2.8h-9.836a2.8,2.8,0,0,0-2.8,2.8V99.614H604.414a2.8,2.8,0,0,0-2.8,2.8v9.678a2.8,2.8,0,0,0,2.8,2.8h20.117v20.1a2.8,2.8,0,0,0,2.8,2.8Z" transform="translate(70.036 6.819)" fill="#00cfe8" fill-rule="evenodd" opacity="0.07"/>
          <path id="Oval" d="M103.436,22A102.378,102.378,0,1,1,1,124.378,102.408,102.408,0,0,1,103.436,22Zm0,50.661a51.717,51.717,0,1,0,51.747,51.717A51.732,51.732,0,0,0,103.436,72.661Z" transform="translate(-0.998 0.365)" fill="#00cfe8" fill-rule="evenodd" opacity="0.074"/>
        </g>
      </g>
      <g id="Meeting" transform="translate(65.943 103.163)">
        <g id="Group_63" data-name="Group 63">
          <path id="Rectangle" d="M61.6,104.411A17.411,17.411,0,0,1,79.007,87h511.6a17.411,17.411,0,0,1,17.411,17.411v222.24a17.411,17.411,0,0,1-17.411,17.411H79.007A17.411,17.411,0,0,1,61.6,326.651Z" transform="translate(-61.596 -87)" fill="#141a2b" fill-rule="evenodd"/>
          <path id="Rectangle_2" d="M69.146,104.411A17.411,17.411,0,0,1,86.558,87H589.942a17.411,17.411,0,0,1,17.411,17.411v222.24a17.411,17.411,0,0,1-17.411,17.411H86.558a17.411,17.411,0,0,1-17.411-17.411Z" transform="translate(-60.93 -87)" fill="#181f33" fill-rule="evenodd"/>
          <path id="Rectangle_3" d="M76.7,105.441A10.882,10.882,0,0,1,87.579,94.559H587.588a10.882,10.882,0,0,1,10.882,10.882V324.288a10.882,10.882,0,0,1-10.882,10.882H87.579A10.882,10.882,0,0,1,76.7,324.288Z" transform="translate(-60.263 -86.333)" fill="#283046" fill-rule="evenodd"/>
          <path id="Rectangle_4" d="M275.85,302.352a6.529,6.529,0,0,1,6.529-6.529h75.273a6.53,6.53,0,0,1,6.529,6.529v15.063H275.85Z" transform="translate(-42.695 -68.578)" fill="#d4efff" fill-rule="evenodd"/>
          <path id="Rectangle_5" d="M283.4,302.352a6.53,6.53,0,0,1,6.529-6.529H365.2a6.53,6.53,0,0,1,6.529,6.529v23.29H283.4Z" transform="translate(-42.029 -68.578)" fill="#91d6ff"/>
        </g>
        <g id="ElementCard20" transform="translate(31.841 18.508)">
          <g id="Rectangle_6">
            <path id="Path_99463" data-name="Path 99463" d="M90.855,109.872a5.864,5.864,0,0,1,5.864-5.864H232.772a5.865,5.865,0,0,1,5.864,5.864v44.236a5.865,5.865,0,0,1-5.864,5.864H96.72a5.864,5.864,0,0,1-5.864-5.864Z" transform="translate(-90.855 -104.008)" fill="#313a53" fill-rule="evenodd"/>
          </g>
          <path id="Rectangle_7" d="M131.037,134.694a1.663,1.663,0,0,1,1.663-1.663h27.67a1.663,1.663,0,0,1,1.663,1.663h0a1.663,1.663,0,0,1-1.663,1.663H132.7a1.663,1.663,0,0,1-1.663-1.663Z" transform="translate(-87.311 -101.448)" fill="#c7c1ff" fill-rule="evenodd" opacity="0.454"/>
          <path id="Rectangle_8" d="M131.037,126.038a1.663,1.663,0,0,1,1.663-1.663h16.6a1.662,1.662,0,0,1,1.662,1.663h0A1.662,1.662,0,0,1,149.3,127.7H132.7a1.663,1.663,0,0,1-1.663-1.663Z" transform="translate(-87.311 -102.211)" fill="#8478ff" fill-rule="evenodd"/>
          <g id="Group_9" data-name="Group 9" transform="translate(85.729 14.417)">
            <path id="Path_3" d="M208.951,122.51a7.058,7.058,0,0,1,11.672.644.837.837,0,1,1-1.435.862,5.384,5.384,0,0,0-8.793-.634l-.112.143-2.6,3.414a16.518,16.518,0,0,1-17.367,5.98l-.276-.075-2.087-.59c-.135-.038-.27-.072-.407-.1a7.193,7.193,0,0,0-8.529,5.3l-.044.186-.431,1.957a5.072,5.072,0,0,1-7.959,3,.838.838,0,0,1,.992-1.349,3.4,3.4,0,0,0,5.29-1.836l.042-.173.431-1.957a8.868,8.868,0,0,1,10.568-6.76l.251.06.249.066,2.088.59a14.844,14.844,0,0,0,15.687-5.087l.17-.219Z" transform="translate(-169.58 -117.039)" fill="#8478ff" fill-rule="evenodd"/>
            <path id="Path_4" d="M201.462,121.714a7.544,7.544,0,0,1,12.051-2.406,19.073,19.073,0,0,1,4.011,6.413.837.837,0,1,1-1.54.657,17.578,17.578,0,0,0-3.618-5.849,5.868,5.868,0,0,0-9.3,1.713l-.074.159-.539,1.2a6.807,6.807,0,0,1-9.811,2.99,4.034,4.034,0,0,0-6.033,2.381l-.036.147-.931,4.072a7.227,7.227,0,0,1-11.783,3.847l-.157-.14-3.794-3.5a.838.838,0,0,1,1.063-1.292l.071.059,3.794,3.5a5.554,5.554,0,0,0,9.12-2.632l.053-.217.932-4.072a5.707,5.707,0,0,1,8.383-3.7l.2.121a5.131,5.131,0,0,0,7.073-1.644c.082-.131.157-.266.226-.4l.1-.208Z" transform="translate(-169.634 -117.256)" fill="#c7c1ff" fill-rule="evenodd"/>
          </g>
          <ellipse id="Oval_2" cx="11.346" cy="11.359" rx="11.346" ry="11.359" transform="translate(13.284 17.177)" fill="#8478ff"/>
        </g>
        <g id="ElementCard3" transform="translate(31.841 82.26)">
          <g id="Rectangle_9">
            <path id="Path_99464" data-name="Path 99464" d="M90.855,168.033a5.441,5.441,0,0,1,5.441-5.441H269.268a5.441,5.441,0,0,1,5.441,5.441V312.416a5.441,5.441,0,0,1-5.441,5.441H96.3a5.441,5.441,0,0,1-5.441-5.441Z" transform="translate(-90.855 -162.592)" fill="#313a53" fill-rule="evenodd"/>
          </g>
          <g id="Group_91410" data-name="Group 91410" transform="translate(14.38 15.423)">
            <g id="Path_3-2" data-name="Path 3" transform="translate(10.271 34.961)">
              <path id="Path_99465" data-name="Path 99465" d="M113.508,277.785S135.365,271.5,145,258.675s12.887-25.259,29.461-25.259,18.7,19.042,36.618,19.042,18.9-24.282,24.854-33.924a20.37,20.37,0,0,1,16.233-9.642" transform="translate(-113.508 -208.892)" fill="none" stroke="#8eeaf6" stroke-linecap="round" stroke-width="4.004"/>
            </g>
            <path id="Path_3_2" data-name="Path 3_2" d="M113.508,276.543s21.857-6.257,31.494-19.027,12.887-25.15,29.461-25.15,18.7,18.959,36.618,18.959,18.9-24.178,24.854-33.777a20.4,20.4,0,0,1,16.233-9.6v80.964a3.352,3.352,0,0,1-3.352,3.352H116.86a3.352,3.352,0,0,1-3.352-3.352Z" transform="translate(-103.237 -174.014)" fill="#cef9ff" fill-rule="evenodd" opacity="0.415"/>
            <rect id="Rectangle_11" width="57.518" height="6.17" rx="2.835" fill="#8eeaf6"/>
            <path id="Rectangle_12" d="M104.07,194.023a3.084,3.084,0,0,1,3.085-3.084h20.536a3.084,3.084,0,0,1,3.084,3.084h0a3.084,3.084,0,0,1-3.084,3.085H107.155a3.085,3.085,0,0,1-3.085-3.085Z" transform="translate(-104.07 -175.515)" fill="rgba(142,234,246,0.4)" fill-rule="evenodd"/>
            <ellipse id="Oval_3" cx="3.595" cy="3.599" rx="3.595" ry="3.599" transform="translate(130.442 0.001)" fill="rgba(142,234,246,0.45)"/>
            <ellipse id="Oval_4" cx="3.595" cy="3.599" rx="3.595" ry="3.599" transform="translate(140.713 0.001)" fill="rgba(142,234,246,0.45)"/>
            <ellipse id="Oval_5" cx="3.595" cy="3.599" rx="3.595" ry="3.599" transform="translate(150.984 0.001)" fill="rgba(142,234,246,0.45)"/>
          </g>
        </g>
        <g id="ElementCard11" transform="translate(244.453 32.904)">
          <g id="Rectangle_13">
            <path id="Path_99466" data-name="Path 99466" d="M286.232,125.381a8.145,8.145,0,0,1,8.145-8.144H539.456a8.145,8.145,0,0,1,8.145,8.144V289.175a8.144,8.144,0,0,1-8.145,8.144H294.377a8.144,8.144,0,0,1-8.145-8.144Z" transform="translate(-286.232 -117.237)" fill="#313a53" fill-rule="evenodd"/>
          </g>
          <g id="Group_26" data-name="Group 26" transform="translate(34.593 92.35)">
            <path id="Path_5" d="M327.631,202.1v64.407h-9.61V202.1Z" transform="translate(-318.021 -202.101)" fill="#e7e4ff" fill-rule="evenodd"/>
            <path id="Path_6" d="M327.631,216.245V265.26h-9.61V216.245Z" transform="translate(-318.021 -200.853)" fill="#c7c1ff" fill-rule="evenodd"/>
            <path id="Path_7" d="M327.631,244.533v18.232h-9.61V244.533Z" transform="translate(-318.021 -198.358)" fill="#8478ff" fill-rule="evenodd"/>
          </g>
          <g id="Group_26_2" data-name="Group 26_2" transform="translate(57.655 76.959)">
            <path id="Path_8" d="M348.822,187.957v79.8h-9.609v-79.8Z" transform="translate(-339.213 -187.957)" fill="#e7e4ff" fill-rule="evenodd"/>
            <path id="Path_9" d="M348.822,209.173v56.711h-9.609V209.173Z" transform="translate(-339.213 -186.085)" fill="#c7c1ff" fill-rule="evenodd"/>
            <path id="Path_10" d="M348.822,244.533v18.232h-9.609V244.533Z" transform="translate(-339.213 -182.966)" fill="#8478ff" fill-rule="evenodd"/>
          </g>
          <g id="Group_26_3" data-name="Group 26_3" transform="translate(80.717 88.502)">
            <path id="Path_11" d="M370.015,198.565V266.82h-9.609V198.565Z" transform="translate(-360.406 -198.565)" fill="#e7e4ff" fill-rule="evenodd"/>
            <path id="Path_12" d="M370.015,219.781v45.168h-9.609V219.781Z" transform="translate(-360.406 -196.693)" fill="#c7c1ff" fill-rule="evenodd"/>
            <path id="Path_13" d="M370.015,248.069v14.384h-9.609V248.069Z" transform="translate(-360.406 -194.198)" fill="#8478ff" fill-rule="evenodd"/>
          </g>
          <g id="Group_26_4" data-name="Group 26_4" transform="translate(103.779 69.263)">
            <path id="Path_14" d="M391.207,180.885V268.38H381.6V180.885Z" transform="translate(-381.598 -180.885)" fill="#e7e4ff" fill-rule="evenodd"/>
            <path id="Path_15" d="M391.207,202.1v64.407H381.6V202.1Z" transform="translate(-381.598 -179.013)" fill="#c7c1ff" fill-rule="evenodd"/>
            <path id="Path_16" d="M391.207,230.389v33.624H381.6V230.389Z" transform="translate(-381.598 -176.518)" fill="#8478ff" fill-rule="evenodd"/>
          </g>
          <g id="Group_26_5" data-name="Group 26_5" transform="translate(126.841 53.871)">
            <path id="Path_17" d="M412.4,166.741V269.627h-9.609V166.741Z" transform="translate(-402.791 -166.741)" fill="#e7e4ff" fill-rule="evenodd"/>
            <path id="Path_18" d="M412.4,195.029v72.1h-9.609v-72.1Z" transform="translate(-402.791 -164.245)" fill="#c7c1ff" fill-rule="evenodd"/>
            <path id="Path_19" d="M412.4,237.461v25.928h-9.609V237.461Z" transform="translate(-402.791 -160.502)" fill="#8478ff" fill-rule="evenodd"/>
          </g>
          <g id="Group_26_6" data-name="Group 26_6" transform="translate(149.904 76.959)">
            <path id="Path_20" d="M433.594,187.957v79.8h-9.61v-79.8Z" transform="translate(-423.984 -187.957)" fill="#e7e4ff" fill-rule="evenodd"/>
            <path id="Path_21" d="M433.594,209.173v56.711h-9.61V209.173Z" transform="translate(-423.984 -186.085)" fill="#c7c1ff" fill-rule="evenodd"/>
            <path id="Path_22" d="M433.594,241.7v21.311h-9.61V241.7Z" transform="translate(-423.984 -183.216)" fill="#8478ff" fill-rule="evenodd"/>
          </g>
          <g id="Group_26_7" data-name="Group 26_7" transform="translate(172.965 84.654)">
            <path id="Path_23" d="M454.785,195.029v72.1h-9.609v-72.1Z" transform="translate(-445.176 -195.029)" fill="#e7e4ff" fill-rule="evenodd"/>
            <path id="Path_24" d="M454.785,209.173v56.711h-9.609V209.173Z" transform="translate(-445.176 -193.781)" fill="#c7c1ff" fill-rule="evenodd"/>
            <path id="Path_25" d="M454.785,236.754v26.7h-9.609v-26.7Z" transform="translate(-445.176 -191.348)" fill="#8478ff" fill-rule="evenodd"/>
          </g>
          <g id="Group_26_8" data-name="Group 26_8" transform="translate(196.028 69.263)">
            <path id="Path_26" d="M475.978,180.885V268.38h-9.609V180.885Z" transform="translate(-466.369 -180.885)" fill="#e7e4ff" fill-rule="evenodd"/>
            <path id="Path_27" d="M475.978,209.173v56.711h-9.609V209.173Z" transform="translate(-466.369 -178.39)" fill="#c7c1ff" fill-rule="evenodd"/>
            <path id="Path_28" d="M475.978,243.825v19h-9.609v-19Z" transform="translate(-466.369 -175.333)" fill="#8478ff" fill-rule="evenodd"/>
          </g>
          <g id="Group_26_9" data-name="Group 26_9" transform="translate(219.089 84.654)">
            <path id="Path_29" d="M497.17,195.029v72.1h-9.609v-72.1Z" transform="translate(-487.561 -195.029)" fill="#e7e4ff" fill-rule="evenodd"/>
            <path id="Path_30" d="M497.17,209.173v56.711h-9.609V209.173Z" transform="translate(-487.561 -193.781)" fill="#c7c1ff" fill-rule="evenodd"/>
            <path id="Path_31" d="M497.17,243.826v19h-9.609v-19Z" transform="translate(-487.561 -190.724)" fill="#8478ff" fill-rule="evenodd"/>
          </g>
          <path id="Rectangle_14" d="M315.195,147.834a2.309,2.309,0,0,1,2.309-2.309h76.868a2.309,2.309,0,0,1,2.308,2.309h0a2.309,2.309,0,0,1-2.308,2.308H317.5a2.309,2.309,0,0,1-2.309-2.308Z" transform="translate(-283.677 -114.742)" fill="#8c81ff" fill-rule="evenodd" opacity="0.576"/>
          <rect id="Rectangle_15" width="43.049" height="4.618" rx="2.122" transform="translate(31.518 17.7)" fill="#8478ff"/>
        </g>
        <g id="Chair4" transform="translate(446.796 300.25)">
          <path id="Path_32" d="M559.568,451.882l12.452,98.383-6.528-.087L553.04,452.8Z" transform="translate(-465.038 -355.061)" fill="#bfe7ff" fill-rule="evenodd"/>
          <path id="Path_33" d="M482.45,475.2a10.279,10.279,0,0,1-10.278-10.278h0a10.278,10.278,0,0,1,10.278-10.278h41.093A12.067,12.067,0,0,0,535.557,443.7l6.571-69.856a12.065,12.065,0,0,1,12.013-10.937h25.791a12.066,12.066,0,0,1,12.03,12.991l-6.773,88.152a12.066,12.066,0,0,1-12.03,11.142Z" transform="translate(-472.172 -362.91)" fill="#91d6ff" fill-rule="evenodd"/>
          <path id="Combined_Shape" data-name="Combined Shape" d="M472.174,464.829h90.633a12.066,12.066,0,0,0,12.03-11.139l6.769-87.839a12.174,12.174,0,0,0-.108-2.8,12.244,12.244,0,0,0-1.843-.139h-25.67a12.067,12.067,0,0,0-12.013,10.933l-6.565,69.6a12.066,12.066,0,0,1-12.013,10.933h-40.97a10.252,10.252,0,0,0-10.252,10.252C472.172,464.7,472.172,464.763,472.174,464.829Z" transform="translate(-472.172 -362.91)" fill="#bfe7ff" fill-rule="evenodd"/>
        </g>
        <g id="Wom1.4" transform="translate(418.998 221.414)">
          <g id="Head" transform="translate(68.237)">
            <path id="Path_34" d="M549.535,352.357c13.274-3.093,14.148-21.323,4.056-27.646,10.408-21.83-13.66-43.5-30.147-30.137-10.808-4.629-19.79,13.434-9.733,27.463-4.217,24.088,4.366,30.314,19.836,30.579Z" transform="translate(-509.333 -290.465)" fill="#422851" fill-rule="evenodd"/>
            <path id="Path_35" d="M548.483,345.492s-6.457-1.516-6.682-12.1-.066-14.2-.066-14.2l-14.223-.257s-.156,11.8-.158,16.065c-.005,11.462-7.987,10.494-7.987,10.494s1.658,9.294,14.547,10.019C543.977,356.078,548.483,345.492,548.483,345.492Z" transform="translate(-508.448 -287.954)" fill="#fff" fill-rule="evenodd"/>
            <path id="Path_36" d="M545.411,315.143c6.345-.246,5.31,9.049-1.281,9.035,0,0-3.828,13.2-17.12,13.2-10.795,0-11.5-15.387-11.595-18.457-.105-3.273-.119-14.025-.119-14.025l30.361-.014Z" transform="translate(-508.807 -289.193)" fill="#fff" fill-rule="evenodd"/>
            <path id="Path_37" d="M528.97,326.6a5.7,5.7,0,0,1-6.833.17" transform="translate(-508.204 -287.278)" fill="none" stroke="#f77b7b" stroke-linecap="round" stroke-width="1.5"/>
            <path id="Path_38" d="M526.719,329.45a3.011,3.011,0,0,1-2.78.035" transform="translate(-508.045 -287.026)" fill="none" stroke="#f49494" stroke-linecap="round" stroke-width="1"/>
            <path id="Path_8-2" data-name="Path 8" d="M542.375,319.14c-.065-1.491.389-2.675,1.909-2.913" transform="translate(-506.419 -288.192)" fill="none" stroke="#f77b7b" stroke-linecap="round" stroke-width="1"/>
            <path id="Path_39" d="M546.493,314.257s-3.478,4.668-4.182,4.693-.951-6.072-.951-6.072c-4.267-.327-15.063-2.478-17.71-7.489-1.851,4.421-5.39,6.386-7.714,6.009l-.441,9.393-1.085-18.886h32.934Z" transform="translate(-508.885 -289.456)" fill="#422851" fill-rule="evenodd"/>
          </g>
          <g id="LLeg" transform="translate(3.737 142.81)">
            <path id="Path_40" d="M487.7,515.02s5.692,11.5,1.026,15.129-17.019,10.419-17.019,10.419l32.705-2.057-7.27-25.088Z" transform="translate(-448.153 -413.607)" fill="#fff" fill-rule="evenodd"/>
            <path id="Path_41" d="M501.41,524.951c-1.614.189.11,5.626-3.384,6.04s-5.183-4.738-9.14-3.106-18.392,10.076-18.96,13.528,4.8,4.466,12.177,3.687,8.734-3.405,14.271-2.347,9.671-.628,9.489-4.671S503.023,524.763,501.41,524.951Z" transform="translate(-448.314 -412.59)" fill="#222d4e" fill-rule="evenodd"/>
            <path id="Path_14-2" data-name="Path 14" d="M486.654,528.417l.718,1.077a1.088,1.088,0,0,1-.374,1.554l-9.757,5.448a1.091,1.091,0,0,1-1.023.021l-1.515-.769c2.379-1.724,4.323-3.019,6.474-4.291C482.826,530.48,484.654,529.474,486.654,528.417Z" transform="translate(-447.889 -412.284)" fill="rgba(255,255,255,0.54)" fill-rule="evenodd"/>
            <path id="Path_42" d="M538.874,421.727c-9.9.442-65.008,12.637-75.021,14.709s-18.477,13.283-10.842,26.264c8.575,14.572,30.7,55.958,36.072,65.289,2.659,4.617,16.072,2.028,12.92-5.722-5.873-14.448-8.6-50.743-23.575-63.977,0,0,50.359,8.769,72.112-1.275C566.351,449.713,562.775,420.658,538.874,421.727Z" transform="translate(-450.062 -421.698)" fill="#fff" fill-rule="evenodd"/>
          </g>
          <g id="LArm" transform="translate(0 60.64)">
            <path id="Path_43" d="M469.023,369.581s.112-8.06-2.705-12.273-2.931-8.687-5.063-8.541-.021,10.547-.021,10.547a27.352,27.352,0,0,1-4.65-2.342c-1.945-1.309-7.84-7.759-9.216-6.616-2.336,1.948,1.426,12.933,3.475,15.129s13.286,9.422,13.286,9.422Z" transform="translate(-446.628 -345.962)" fill="#fff" fill-rule="evenodd"/>
            <path id="Path_44" d="M528.655,364.977c-4.606,10.688-13.039,30.324-16.516,36.182-4.357,7.336-11.227,10.568-19.271,5.126-8.453-5.72-31.727-28.028-32.409-33.081s5.02-11.116,10.175-7.978S497.205,386.2,497.205,386.2s8.644-22.17,15.6-35.012C518.824,340.076,535.665,348.729,528.655,364.977Z" transform="translate(-445.413 -346.189)" fill="#6a5ee3" fill-rule="evenodd"/>
            <path id="Path_45" d="M494.387,383.133s-2.322,7.879-2.864,7.423.415-9.482.415-9.482Z" transform="translate(-442.682 -343.112)" fill="rgba(0,0,0,0.3)" fill-rule="evenodd"/>
          </g>
          <g id="Body" transform="translate(64.691 55.66)">
            <path id="Path_46" d="M570.655,352.5s-11.1,37.185-11.428,44.224,9.078,27.729,7.477,32.958c-3.693,12.085-50.838,17.287-52.639,1.032-.84-7.582.908-14.386-1.107-23.319s-10.075-22.207-5.5-34.688,3.349-24.027,6.623-26.21,10.924-4.5,10.924-4.5c3.721,5.478,16.282,5.4,22.275-.386C547.281,341.613,562.171,344.5,570.655,352.5Z" transform="translate(-506.075 -341.613)" fill="#7367f0" fill-rule="evenodd"/>
            <path id="Path_47" d="M558.776,357.63c-7.4,11.747-7.377,32.2-11.35,34.879s-19.439.05-19.439,2.172,21.371,21.562,17.863,30.856q-2.755,7.3,1.5,13.061l.925-.2c8.421-1.9,15.19-5.322,16.5-9.607,1.6-5.229-8.89-25.918-8.561-32.958.279-5.975,9.1-33.674,11.761-41.909Q564.72,348.188,558.776,357.63Z" transform="translate(-504.142 -340.718)" fill="rgba(0,0,0,0.2)" fill-rule="evenodd"/>
          </g>
          <g id="RArm" transform="translate(74.982 63.441)">
            <path id="Path_48" d="M547.26,386.639s-9.349-8.278-12.211-9.239-19.624-2.116-19.517.055c.12,2.327,9.122,2.193,10.055,3.336s1.145,8.965,4.671,9.842,14.069,2.392,14.069,2.392Z" transform="translate(-515.531 -346.341)" fill="#fff" fill-rule="evenodd"/>
            <path id="Path_49" d="M570.2,354.008c9.849,13.908,18.258,35.095,21.487,43.354s-.028,20.719-14.222,18.272c-14.169-2.439-36.712-15.694-39.206-19.561s1.295-10.9,6.067-9.981c4.421.852,26.349,10.181,26.349,10.181s-14.107-25.019-17.552-31.726C547.363,353.348,561.519,341.754,570.2,354.008Z" transform="translate(-513.597 -348.763)" fill="#6a5ee3" fill-rule="evenodd"/>
            <path id="Path_50" d="M568,392.657s7.389,3.673,6.488,2.132-9.307-6.952-9.307-6.952Z" transform="translate(-511.151 -345.316)" fill="rgba(0,0,0,0.3)" fill-rule="evenodd"/>
          </g>
        </g>
        <g id="Men3.2" transform="translate(116.881 123.252)">
          <g id="LLeg_2" transform="translate(46.791 133.567)">
            <path id="Path_51" d="M236.18,511.2s-.148,9.48,5.67,12.847,14.831,9.624,14.831,9.624l-34.287,1.163.977-23.72Z" transform="translate(-211.083 -306.405)" fill="#f8cfcf" fill-rule="evenodd"/>
            <path id="Path_52" d="M221.337,521.014l-.558,15.379h7.965l.545-1.982a12.187,12.187,0,0,1,4.732.733c1.831.9,2.077,1.344,2.077,1.344l25.262.053s1.246-4.971-6.454-8.567-13.308-8.7-14.372-9.222a4.722,4.722,0,0,0-4.762.412c-1.523,1.236-2.729,4.487-6.183,4.588C225.143,523.886,222.589,518.413,221.337,521.014Z" transform="translate(-211.226 -305.772)" fill="#4b4b4b" fill-rule="evenodd"/>
            <path id="Path_38-2" data-name="Path 38" d="M241.343,520.25l-2.618,2.532" transform="translate(-209.642 -305.599)" fill="none" stroke="#fff" stroke-linecap="round" stroke-width="2"/>
            <path id="Path_38_2" data-name="Path 38_2" d="M244.851,522.014l-2.619,2.533" transform="translate(-209.333 -305.444)" fill="none" stroke="#fff" stroke-linecap="round" stroke-width="2"/>
            <path id="Path_38_3" data-name="Path 38_3" d="M248.361,523.779l-2.619,2.533" transform="translate(-209.023 -305.288)" fill="none" stroke="#fff" stroke-linecap="round" stroke-width="2"/>
            <path id="Path_53" d="M212,323s9.525,104.882,9.822,112.172-3.06,19.874-2.995,33.512,1.225,61.7,1.225,61.7l21.013.445s8.831-86.858,8.927-99.883.9-106.7.9-106.7Z" transform="translate(-212 -323)" fill="#383838" fill-rule="evenodd"/>
            <path id="Path_54" d="M226.593,432.008l.023.26q.475,6.67-8.285,43.885l-.058-13.9h0c-.064-13.395,3.172-25.771,3.007-33.115l-.012-.4c-.1-2.456-1.248-16-2.726-32.872l.69,2.471Q225.31,420.3,226.593,432.008Z" transform="translate(-211.447 -316.572)" fill="rgba(255,255,255,0.19)" fill-rule="evenodd" opacity="0.284"/>
          </g>
          <g id="RLeg" transform="translate(13.67 133.951)">
            <path id="Path_55" d="M188.806,510l-4.052,24.549,14.939-.075.472-24.858Z" transform="translate(-181.282 -306.922)" fill="#f8cfcf" fill-rule="evenodd"/>
            <path id="Path_56" d="M187.481,519.979a3.263,3.263,0,0,0-2.571,3.082l-.121,3.65c-2.113,2.344-3.111,9.116-3.217,9.867a.544.544,0,0,0-.005.139c.31,3.318,22.041,3.277,24.081.157a.663.663,0,0,0,.072-.479c-.229-1.383-1.443-8.079-3.777-9.905l-.014-3.616a3.264,3.264,0,0,0-2.418-3.141l-2.245-.6c-2.184-3.185-5.16-3.072-7.71.4Z" transform="translate(-181.564 -306.285)" fill="#4b4b4b" fill-rule="evenodd"/>
            <path id="Path_39-2" data-name="Path 39" d="M189.686,521.748h6.047" transform="translate(-180.847 -305.851)" fill="none" stroke="#fff" stroke-linecap="round" stroke-width="2"/>
            <path id="Path_39_2" data-name="Path 39_2" d="M189.686,524.393h6.047" transform="translate(-180.847 -305.618)" fill="none" stroke="#fff" stroke-linecap="round" stroke-width="2"/>
            <path id="Path_39_3" data-name="Path 39_3" d="M190.568,527.037h4.124" transform="translate(-180.769 -305.385)" fill="none" stroke="#fff" stroke-linecap="round" stroke-width="2"/>
            <path id="Path_57" d="M196.414,324.345s-6.674,71.894-6.584,85.661,2.055,19.815-.74,29.692-5.179,88.71-5.179,88.71l20.666,2.261s13.2-84.356,14.639-96.051S238.4,323.353,238.4,323.353Z" transform="translate(-181.357 -323.353)" fill="#2e2e2e" fill-rule="evenodd"/>
            <path id="Path_58" d="M201.982,373.077l-1.26,4.563c-3.691,13.468-7.1,27.709-6.206,48.052l.044.929q.328,6.609-8.411,76.728l-.554,3.285q-.857,5.026-1.527,8.576l.127-4.14c.742-22.85,2.741-63.875,4.881-71.437,2.795-9.877.831-15.923.74-29.691-.063-9.638,3.188-47.757,5.145-69.761l1.44-15.9,8.723-.206.022,2.449q.23,33.908-3.163,46.553Z" transform="translate(-181.343 -323.289)" fill="rgba(255,255,255,0.19)" fill-rule="evenodd" opacity="0.284"/>
          </g>
          <g id="LArm_2" transform="translate(68.424 18.216)">
            <g id="Group_6" data-name="Group 6" transform="translate(60.74)">
              <path id="Path_59" d="M288.934,244.821s-1.725-9.509-1.1-11.435c.53-1.664,5.538-4.063,5.538-4.063s8.71-13.609,10.617-12.224c1.551,1.123-4.536,11.156-4.536,11.156s5.55,5.76,5.473,8.335-9.059,10.634-9.059,10.634Z" transform="translate(-287.695 -217)" fill="#f8cfcf" fill-rule="evenodd"/>
              <path id="Path_60" d="M293.08,228.247s3.858-.519,4.471.668c.524,1.012-2.681,3.882-2.681,4.688s.046,6.911.3,6.967,3.864-9.963,3.095-12.081C297.635,226.748,293.08,228.247,293.08,228.247Z" transform="translate(-287.22 -216.061)" fill="#f28585" fill-rule="evenodd"/>
            </g>
            <path id="Path_61" d="M247.84,254.844c-10.1-8.73-25.277,7.008-8.359,21.639,6.455,5.583,26.73,19.505,31.7,22.567,7.912,4.873,14.415.476,17.086-7.193,2.267-6.5,15.825-41.3,14.1-46.413-1.124-3.334-7.163-6.578-10.193-3.955-4.429,3.834-17.977,37.464-17.977,37.464S259.329,264.77,247.84,254.844Z" transform="translate(-231.879 -214.924)" fill="#877bff" fill-rule="evenodd"/>
            <path id="Path_62" d="M270.766,276.1s4.437,5.383,4.758,4.561S272,272.918,272,272.918Z" transform="translate(-228.449 -212.067)" fill="rgba(0,0,0,0.16)" fill-rule="evenodd"/>
            <path id="Path_41-2" data-name="Path 41" d="M286.2,243.44c3.526-1.632,7.377.386,9.5,3.625" transform="translate(-227.087 -214.719)" fill="none" stroke="#5386bf" stroke-linecap="round" stroke-width="1"/>
          </g>
          <g id="Head_2" transform="translate(41.069)">
            <path id="Path_63" d="M206.742,246.329s5.809-1.336,6.011-10.668.06-12.518.06-12.518l13.772-.226s.138,10.4.141,14.162c0,8.189,6.208,10.4,6.208,10.4s-.515,8.954-12.11,9.594C211.773,257.574,206.742,246.329,206.742,246.329Z" transform="translate(-206.742 -198.262)" fill="#f8c5c5" fill-rule="evenodd"/>
            <g id="Head1" transform="translate(0.555)">
              <path id="Path_64" d="M236.274,214.1l-.307,8.819a20.347,20.347,0,0,0,4.881-11.484Z" transform="translate(-204.719 -199.275)" fill="#fff" fill-rule="evenodd"/>
              <path id="Path_65" d="M211.467,219.524c-5.708-.217-4.776,7.976,1.154,7.965,0,0,6.373,12.562,16.378,12.6,4.82.015,6.392-4.193,7.837-7.147a29.021,29.021,0,0,0,2.593-10.079c.095-2.886.107-12.363.107-12.363l-28.29-.013Z" transform="translate(-207.217 -199.359)" fill="#f8cfcf" fill-rule="evenodd"/>
              <path id="Path_66" d="M239.57,215.744h-19.9c-.209,3.525-1.4,6.451-4.436,8.61.086,5.164,1.848,8.922,4.9,11.559,2.66-7.474,18.932-5.429,17.748-.553-2.487,10.244-25.791,10.476-24.377-13.1-.929-1.243-4.254-1.476-5.349-.233-1.87-5.15-1.072-12.438,4.334-13.492C208.254,197.558,265.954,195.236,239.57,215.744Z" transform="translate(-207.252 -200.26)" fill="#424242" fill-rule="evenodd"/>
              <path id="Path_67" d="M225.234,232.113a5.551,5.551,0,0,0,6-.174" transform="translate(-205.665 -197.466)" fill="none" stroke="#cc6969" stroke-linecap="round" stroke-width="1"/>
              <path id="Path_8_2" data-name="Path 8_2" d="M212.114,223.3c.059-1.315-.35-2.358-1.718-2.568" transform="translate(-206.974 -198.455)" fill="none" stroke="#de6767" stroke-linecap="round" stroke-width="1"/>
            </g>
          </g>
          <g id="Body_2" transform="translate(20.761 46.51)">
            <path id="Path_68" d="M210.942,243l16.435,10.66,7.411-8.607s15.611,4.832,18.508,10.481c4.179,8.151-1.328,73.459,1.073,77.4,5.116,8.4-1.686,14.163-24.2,16.281s-42.489.384-38.866-10.823-10.363-84.349,1.97-88.377C197.126,248.754,210.942,243,210.942,243Z" transform="translate(-188.08 -243)" fill="#7367f0" fill-rule="evenodd"/>
            <path id="Path_69" d="M199.851,261.935q1.494,2.636-1.539,18.26a33.263,33.263,0,0,0,5.445,25.46l.293.409a40.846,40.846,0,0,1,4.862,9.585c3.639,9.719-4.753,17.822,1.678,33.027l-.778-.037c-12.619-.652-20.96-3.9-18.509-11.477,2.973-9.189-5.9-60.013-2.389-80.242Q198.021,258.707,199.851,261.935Z" transform="translate(-188.08 -241.772)" fill="rgba(0,0,0,0.16)" fill-rule="evenodd"/>
            <path id="Path_70" d="M209.283,243l14.7,9.571a16.192,16.192,0,0,0-3.747,8.612c-5.65-4.411-11.522-10.574-13.342-17.2Z" transform="translate(-186.42 -243)" fill="#5e54c7" fill-rule="evenodd"/>
            <path id="Path_71" d="M225.26,252.166c2.486,1.678,4.468,4.65,6.083,8.029,1.935-3.883,2.676-9.01,2.676-14.479l-2.428-.958Z" transform="translate(-184.8 -242.845)" fill="#5e54c7" fill-rule="evenodd"/>
            <path id="Path_72" d="M222.6,251.814l.192.108a2.287,2.287,0,0,0,2.7-.356h0a311.662,311.662,0,0,1,10.619,65.3l-5.784,9.592-6.765-8.977C224.445,293.9,224.438,270.907,222.6,251.814Z" transform="translate(-185.035 -242.244)" fill="#cbc6ff" fill-rule="evenodd"/>
          </g>
          <g id="RArm_2" transform="translate(0 54.127)">
            <g id="Example_Book_Back" data-name="Example Book Back" transform="translate(70.579 50.45)">
              <g id="Group_3" data-name="Group 3">
                <path id="Rectangle_16" d="M236.277,299.185a2.681,2.681,0,0,1,3.055-2.372l13.392,1.958A2.681,2.681,0,0,1,255,301.7l-2.4,22.868a2.683,2.683,0,0,1-3.055,2.373l-13.392-1.958a2.682,2.682,0,0,1-2.279-2.934Z" transform="translate(-233.859 -296.323)" fill="#6182ec"/>
                <path id="Rectangle_17" d="M237.745,298.762a2.68,2.68,0,0,1,3.182-2.351l14,2.746,9.582-.16a2.681,2.681,0,0,1,2.712,2.961l-2.4,22.833a2.682,2.682,0,0,1-2.621,2.4l-10.237.171-14.471-2.838a2.682,2.682,0,0,1-2.15-2.912Z" transform="translate(-233.73 -296.36)" fill="#96effa" fill-rule="evenodd"/>
                <path id="Rectangle_18" d="M239.895,303.613a1.742,1.742,0,0,1,2.045-1.531l6.427,1.176a1.74,1.74,0,0,1,1.418,1.895l-.274,2.605a1.74,1.74,0,0,1-2.045,1.531l-6.426-1.176a1.74,1.74,0,0,1-1.418-1.895Z" transform="translate(-233.352 -295.858)" fill="#74cfdb"/>
                <path id="Rectangle_19" d="M252.581,299.694a.871.871,0,0,1,.957-.775l.563.06a.87.87,0,0,1,.775.957L252.1,326.318a.871.871,0,0,1-.957.775l-.563-.06a.87.87,0,0,1-.775-.957Z" transform="translate(-232.453 -296.135)" fill="#eaefff"/>
                <path id="Rectangle_20" d="M253.284,299.768a.871.871,0,0,1,.957-.775l.563.06a.87.87,0,0,1,.775.957l-2.773,26.383a.871.871,0,0,1-.957.775l-.563-.06a.87.87,0,0,1-.775-.957Z" transform="translate(-232.391 -296.128)" fill="#7ad2dd"/>
              </g>
            </g>
            <path id="Path_73" d="M222.969,308.844s4.991-1,7.033-2.591,8.229-2.719,8.229-2.719l-1.979,4.142s15.161-1.415,15.52.072-4.025,3.1-4.025,3.1a40.037,40.037,0,0,1-4.256,6.34c-1.981,2.2-11.822,1.939-15.272.566a12.735,12.735,0,0,0-6.222-.594Z" transform="translate(-164.327 -245.277)" fill="#f8cfcf" fill-rule="evenodd"/>
            <path id="Path_74" d="M187.5,255.7c5.421-11.641,23.984-3.8,19.306,8.673-4.531,12.08-15.51,40.287-15.51,40.287s34.792,4.389,37.5,6.436c3.619,2.73,1.382,10.522-1.693,11.909-2.6,1.173-21.931,1.859-40.843.378-9.355-.732-16.274-4.726-17.239-15.1C168.349,301.019,182.278,266.915,187.5,255.7Z" transform="translate(-169.002 -250)" fill="#877bff" fill-rule="evenodd"/>
            <path id="Path_75" d="M189.681,300.224s-2.891,5.462-2.065,5.573,5.029-5.173,5.029-5.173Z" transform="translate(-167.373 -245.569)" fill="rgba(0,0,0,0.16)" fill-rule="evenodd"/>
            <path id="Path_40-2" data-name="Path 40" d="M221.8,305.6a13.985,13.985,0,0,1-1.17,10.217" transform="translate(-164.448 -245.095)" fill="none" stroke="#5386bf" stroke-linecap="round" stroke-width="1"/>
          </g>
        </g>
        <g id="Vase2" transform="translate(26.952 325.971)">
          <g id="Group_39" data-name="Group 39" transform="translate(0 0)">
            <path id="Rectangle_21" d="M86.363,445.473h0a17.775,17.775,0,0,1,23.542,9.036l3.114,7.057h0a17.774,17.774,0,0,1-23.541-9.037Z" transform="translate(-86.363 -381.486)" fill="#02d3af" fill-rule="evenodd"/>
            <path id="Path_76" d="M98.193,449.378q13.466,9.582,17.481,21.355,4.043,11.83,3.3,39.634A.515.515,0,1,0,120,510.4q.757-27.965-3.355-40-4.138-12.107-17.861-21.866a.513.513,0,0,0-.718.125A.523.523,0,0,0,98.193,449.378Z" transform="translate(-85.338 -381.087)" fill="#02b596" fill-rule="evenodd"/>
            <path id="Rectangle_22" d="M158.677,441.456h0a17.632,17.632,0,0,0-23.508,8.556l-3.5,7.564h0a17.632,17.632,0,0,0,23.508-8.556Z" transform="translate(-82.366 -381.85)" fill="#02d3af" fill-rule="evenodd"/>
            <g id="Group_88" data-name="Group 88" transform="translate(5.586 41.917)">
              <path id="Rectangle_23" d="M91.5,425.413h0a15.8,15.8,0,0,1,18.741,12.171l1.468,6.91h0a15.8,15.8,0,0,1-18.74-12.171Z" transform="translate(-91.496 -425.065)" fill="#02d3af"/>
              <path id="Path_77" d="M97.282,430.529q9.869,6.888,13.363,14.851l.144.334.145.352q3.588,8.906,11.857,46.593a.515.515,0,1,0,1.007-.221l-.682-3.1-.8-3.585q-7.461-33.366-10.731-40.794-3.629-8.248-13.72-15.287a.513.513,0,0,0-.717.131A.524.524,0,0,0,97.282,430.529Z" transform="translate(-91.005 -424.666)" fill="#02b596" fill-rule="evenodd"/>
            </g>
            <path id="Rectangle_24" d="M146.04,420.56h0A17.033,17.033,0,0,0,128.71,437.3l-.146,8.393h0a17.034,17.034,0,0,0,17.331-16.737Z" transform="translate(-82.64 -383.546)" fill="#02d3af" fill-rule="evenodd"/>
            <path id="Path_78" d="M140.7,423.68A106.823,106.823,0,0,0,127.44,449.4q-4.179,12.374-8.339,38.23a.516.516,0,1,0,1.017.167l.341-2.1.234-1.413q3.864-23.125,7.722-34.553a105.852,105.852,0,0,1,13.137-25.462.522.522,0,0,0-.133-.723A.511.511,0,0,0,140.7,423.68Z" transform="translate(-83.475 -383.29)" fill="#02b596" fill-rule="evenodd"/>
            <g id="Group_87" data-name="Group 87" transform="translate(35.771 13.977)">
              <path id="Path_79" d="M127.582,418.316s-4.908,13.981-7.078,34.576a283.456,283.456,0,0,0-.9,41.188l2.4.218s-1.286-24.037.258-41.315a211.611,211.611,0,0,1,6.525-34.557Z" transform="translate(-119.234 -397.72)" fill="#02b596" fill-rule="evenodd"/>
              <ellipse id="Oval_6" cx="7.904" cy="12.12" rx="7.904" ry="12.12" transform="translate(6.11 0) rotate(14)" fill="#c2fff4"/>
              <ellipse id="Oval_7" cx="5.499" cy="7.901" rx="5.499" ry="7.901" transform="translate(7.583 5.406) rotate(14)" fill="#02d3af"/>
              <path id="Path_80" d="M128.971,420.287l4.415-13.781a1.56,1.56,0,0,0-.995-1.962,1.542,1.542,0,0,0-1.947,1l-4.416,13.781a1.563,1.563,0,0,0,1,1.963A1.544,1.544,0,0,0,128.971,420.287Z" transform="translate(-118.641 -398.942)" fill="#fff" fill-rule="evenodd"/>
            </g>
            <g id="Group_87_2" data-name="Group 87_2" transform="translate(5.445)">
              <path id="Path_81" d="M105.046,405.586s6.342,13.392,10.653,33.647a283.335,283.335,0,0,1,5.2,40.868l-2.358.467s-1.234-24.039-4.576-41.062a211.624,211.624,0,0,0-10.1-33.686Z" transform="translate(-90.263 -384.866)" fill="#02b596" fill-rule="evenodd"/>
              <ellipse id="Oval_8" cx="7.904" cy="12.12" rx="7.904" ry="12.12" transform="translate(23.146 22.777) rotate(160)" fill="#c2fff4"/>
              <ellipse id="Oval_9" cx="5.499" cy="7.901" rx="5.499" ry="7.901" transform="translate(19.362 20.382) rotate(160)" fill="#02d3af"/>
              <path id="Path_82" d="M103.7,407.713l-5.833-13.245a1.561,1.561,0,0,1,.785-2.056,1.543,1.543,0,0,1,2.041.8l5.832,13.244a1.563,1.563,0,0,1-.785,2.057A1.543,1.543,0,0,1,103.7,407.713Z" transform="translate(-90.805 -386.04)" fill="#fff" fill-rule="evenodd"/>
            </g>
            <path id="Path_83" d="M154.868,443.351q-18.328,7.172-25.555,16.6t-9.569,29.263a.515.515,0,1,0,1.023.124q2.324-19.576,9.362-28.752T155.24,444.32a.521.521,0,0,0,.294-.673A.513.513,0,0,0,154.868,443.351Z" transform="translate(-83.418 -381.538)" fill="#02b596" fill-rule="evenodd"/>
          </g>
          <g id="Group_38" data-name="Group 38" transform="translate(9.994 66.975)">
            <path id="Path_151" data-name="Path 151" d="M124.257,479.847c-5.8-20.673-28.71-14.624-28.71-14.624s17.151,5.605,25.9,14.624Z" transform="translate(-95.547 -446.653)" fill="#02b596" fill-rule="evenodd"/>
            <path id="Path_151_2" data-name="Path 151_2" d="M121.875,477.12c5.8-20.674,25.138-17.651,25.138-17.651s-11.744,9.654-22.327,17.651Z" transform="translate(-93.224 -447.102)" fill="#02b596" fill-rule="evenodd"/>
            <path id="Path_151_3" data-name="Path 151_3" d="M121.94,482.219c-5.186-18.341,6.911-34.128,6.911-34.128s-.613,21.721-4.818,32.788Z" transform="translate(-93.333 -448.092)" fill="#02b596" fill-rule="evenodd"/>
            <path id="Path_114" data-name="Path 114" d="M117.681,477.692a191.6,191.6,0,0,1-6.283-24.855c8.448,3.4,11.162,16.933,8.448,24.855Z" transform="translate(-94.149 -447.673)" fill="#02d3af" fill-rule="evenodd"/>
            <g id="Group_89" data-name="Group 89" transform="translate(2.028 18.507)">
              <path id="Rectangle_25" d="M102.025,471.955a2.193,2.193,0,0,1,2.185-2.384h33.356a2.194,2.194,0,0,1,2.185,2.384l-6.428,73.556a2.194,2.194,0,0,1-2.185,2h-20.5a2.194,2.194,0,0,1-2.186-2Z" transform="translate(-97.004 -464.704)" fill="#7569ec" fill-rule="evenodd"/>
              <g id="Group_91411" data-name="Group 91411">
                <path id="Rectangle_27" d="M97.41,465.1H111.5c-8.729,33.139,17.549,55.922,0,89.062H97.41Z" transform="translate(-97.41 -465.099)" fill="#8175ff" fill-rule="evenodd"/>
              </g>
            </g>
          </g>
        </g>
        <g id="Chair4_2" transform="translate(621.403 300.25)">
          <path id="Path_25-2" data-name="Path 25" d="M680.755,451.882,668.3,550.265l6.528-.087L687.284,452.8Z" transform="translate(-629.477 -355.061)" fill="#91d6ff" fill-rule="evenodd"/>
          <path id="Path_84" d="M647.456,451.882,635,550.265l6.528-.087L653.984,452.8Z" transform="translate(-632.415 -355.061)" fill="#91d6ff" fill-rule="evenodd"/>
          <path id="Path_85" d="M720.022,451.882l12.452,98.383-6.529-.087L713.493,452.8Z" transform="translate(-625.491 -355.061)" fill="#bfe7ff" fill-rule="evenodd"/>
          <path id="Path_86" d="M642.9,475.2a10.279,10.279,0,0,1-10.278-10.278h0A10.278,10.278,0,0,1,642.9,454.639H684A12.067,12.067,0,0,0,696.01,443.7l6.571-69.856a12.065,12.065,0,0,1,12.013-10.937h25.791A12.067,12.067,0,0,1,752.416,375.9l-6.774,88.152a12.066,12.066,0,0,1-12.03,11.142Z" transform="translate(-632.625 -362.91)" fill="#91d6ff" fill-rule="evenodd"/>
          <path id="Combined_Shape_2" data-name="Combined Shape_2" d="M632.627,464.829H723.26a12.066,12.066,0,0,0,12.03-11.139l6.769-87.839a12.13,12.13,0,0,0-.108-2.8,12.243,12.243,0,0,0-1.843-.139H714.439a12.066,12.066,0,0,0-12.013,10.933l-6.565,69.6a12.067,12.067,0,0,1-12.013,10.933H642.877a10.252,10.252,0,0,0-10.252,10.252C632.625,464.7,632.626,464.763,632.627,464.829Z" transform="translate(-632.625 -362.91)" fill="#bfe7ff" fill-rule="evenodd"/>
        </g>
        <g id="Wom2.4" transform="translate(562.401 218.641)">
          <g id="LLeg_3" transform="translate(31.84 143.741)">
            <path id="Path_87" d="M645.41,513.545s5.709,11.53,1.028,15.163-17.067,10.444-17.067,10.444l32.8-2.061-7.291-25.147Z" transform="translate(-605.75 -411.895)" fill="#fff" fill-rule="evenodd"/>
            <path id="Path_88" d="M659.216,523c-1.033.492.665,5.124-2.966,4.8s-5.91-5.113-8.587-4.8-4.378,5.133-9.476,8.491-12.654,7.366-12.148,10.743,12.4,4.282,18.425,3.163,8.837-3.539,12.746-3.346,6.366-.285,7.591-2.794S660.407,522.435,659.216,523Z" transform="translate(-606.046 -410.921)" fill="#eedfe8" fill-rule="evenodd"/>
            <path id="Path_89" d="M658.927,537.333l-.334-.02c-4.845-.408-8.168,2.639-12.779,3.5s-16.773,1.157-18.715-1.728c-.093-.136-.177-.276-.257-.418a3.246,3.246,0,0,0-.8,2.661c.506,3.214,12.4,4.074,18.426,3.011s8.839-3.369,12.747-3.185l.7.026c3.507.1,5.745-.442,6.9-2.686a6.141,6.141,0,0,0-.064-3.209,10.176,10.176,0,0,1-5.814,2.05Z" transform="translate(-606.047 -409.836)" fill="#ec7aa5" fill-rule="evenodd"/>
            <path id="Path_90" d="M696.731,420.034c-9.929.443-65.195,12.667-75.235,14.743s-18.53,13.313-10.874,26.326c8.6,14.606,30.788,56.089,36.176,65.44,2.666,4.628,16.118,2.033,12.958-5.736-5.891-14.481-8.626-50.861-23.644-64.125,0,0,50.5,8.79,72.32-1.279C724.287,448.084,720.7,418.962,696.731,420.034Z" transform="translate(-607.665 -420.005)" fill="#413c75" fill-rule="evenodd"/>
          </g>
          <g id="LArm_3" transform="translate(29.179 60.291)">
            <path id="Path_91" d="M627.679,364.589s.113-5.9-2.714-10.125-2.938-8.708-5.076-8.561-.022,10.572-.022,10.572a27.5,27.5,0,0,1-4.663-2.348c-1.949-1.311-7.861-7.776-9.243-6.63-2.342,1.952,1.431,12.963,3.486,15.164s12.236,8.355,12.236,8.355L651.646,401.2l4.48-16.024Z" transform="translate(-605.22 -343.093)" fill="#fff" fill-rule="evenodd"/>
            <path id="Path_92" d="M684.373,362.151c-4.619,10.713-13.077,30.395-16.564,36.266-4.369,7.353-11.26,10.594-19.327,5.137-1.688-1.142-6.535-5.134-6.535-5.134a28.788,28.788,0,0,1,7.829-17.526l3.057,2.528S661.5,361.2,668.475,348.33C674.514,337.193,691.4,345.865,684.373,362.151Z" transform="translate(-601.98 -343.32)" fill="#ea5455" fill-rule="evenodd"/>
            <path id="Path_93" d="M652.115,380.35s-2.328,7.9-2.872,7.439.416-9.5.416-9.5Z" transform="translate(-601.351 -340.236)" fill="rgba(0,0,0,0.16)" fill-rule="evenodd"/>
          </g>
          <g id="Head_3" transform="translate(100.793)">
            <path id="Path_94" d="M701.77,325.454v9.481l6.961-5.605s2.141-9.082,3.881-15.828c1.091-4.231,3.75-18.546-6.954-17.876-8.769-15.457-34.3-5.89-34.508,12.993-.244,22.712-.045,31.555-.045,31.555C685.546,341,693.672,338.914,701.77,325.454Z" transform="translate(-671.028 -287.917)" fill="#422851" fill-rule="evenodd"/>
            <path id="Path_95" d="M708.15,341.155s-6.475-1.52-6.7-12.13-.066-14.234-.066-14.234l-14.264-.257s-.156,11.826-.158,16.1c-.007,10.4-7.655,11.252-7.655,11.252s1.307,8.582,14.233,9.309C703.631,351.766,708.15,341.155,708.15,341.155Z" transform="translate(-670.298 -285.569)" fill="#fff" fill-rule="evenodd"/>
            <path id="Path_96" d="M705.1,310.734c6.364-.246,5.326,9.069-1.284,9.057,0,0-3.839,13.233-17.17,13.233-10.826,0-11.53-15.423-11.628-18.5-.106-3.28-.119-14.058-.119-14.058l30.448-.014Z" transform="translate(-670.687 -286.811)" fill="#fff" fill-rule="evenodd"/>
            <path id="Path_97" d="M705.652,311.155c-2.637.435-2.317,2.181-3.034,2.028-3.641-.775-18.38.247-20.278-7.858-2.362,5.063-2.939,6.308-8.139,7.667V298.155L707.09,295S706.58,311,705.652,311.155Z" transform="translate(-670.748 -287.292)" fill="#422851" fill-rule="evenodd"/>
            <path id="Path_98" d="M688.61,322.215a5.719,5.719,0,0,1-6.852.171" transform="translate(-670.082 -284.891)" fill="none" stroke="#f77b7b" stroke-linecap="round" stroke-width="1.5"/>
            <path id="Path_99" d="M686.355,325.075a3.017,3.017,0,0,1-2.788.035" transform="translate(-669.922 -284.639)" fill="none" stroke="#f49494" stroke-linecap="round" stroke-width="1"/>
            <path id="Path_8_3" data-name="Path 8_3" d="M702.053,314.742c-.065-1.494.391-2.681,1.914-2.92" transform="translate(-668.292 -285.808)" fill="none" stroke="#f77b7b" stroke-linecap="round" stroke-width="1"/>
          </g>
          <g id="Body_3" transform="translate(0 54.496)">
            <path id="Path_100" d="M707.879,338c-8.127,4.977-17.523,6.8-26.268,1.4-14.272,28.142-17.829,61.721-14.4,98.834,20.812,8.24,38.3,6.62,53.2-2.8Z" transform="translate(-570.679 -337.995)" fill="#ffe4f4" fill-rule="evenodd"/>
            <g id="RLeg_2" transform="translate(0 85.079)">
              <path id="Path_101" d="M613.784,513.84s.172,13.571-11.011,18.644-19.137,4.769-18.123,8.69,30.1,3.764,32.817.7c2.316-2.609,7.35-26.908,8.736-25.051Z" transform="translate(-577.863 -407.562)" fill="#fff" fill-rule="evenodd"/>
              <path id="Path_102" d="M622.432,531.936c-1.714-1.233-3.155,5.877-7.809,3.9s-.985-8.513-3.914-9.719-8.586,5.276-16.1,6.851-13.612,2.952-15.346,5.876c-1.493,2.514,0,3.317,0,3.317s7.232,3.612,11.726,4.407c6.529,1.154,25.4,1.924,27.466-.182C619.726,545.1,623.29,532.553,622.432,531.936Z" transform="translate(-578.389 -406.492)" fill="#eedfe8" fill-rule="evenodd"/>
              <path id="Path_103" d="M578.873,538.157a2.434,2.434,0,0,0,1.086,3.644l1.078.459a60.423,60.423,0,0,0,10.074,3.327c6.255,1.2,25.624,1.9,27.708-.151a10.178,10.178,0,0,0,1.256-3.4l-1.329.145c-6.4.678-20.675,1.9-27.721.244-6.255-1.474-9.679-3.9-11.24-5.313A4.449,4.449,0,0,0,578.873,538.157Z" transform="translate(-578.406 -405.508)" fill="#ec7aa5" fill-rule="evenodd"/>
              <path id="Path_104" d="M727.7,416.177s14.436,30.486-5.851,40.955c-19.619,10.124-78.352-1.85-78.352-1.85a71.239,71.239,0,0,1,0,15.986c-2.74,19.683-15.777,52.475-18.535,56.595-3.814,5.7-15.433,1.4-15.652-3.343s8.758-65.341,10.124-76.9,5.646-13.235,18.17-16.394c2.877-.726,36.9-9.181,40.019-8.934C704.4,424.414,727.7,416.177,727.7,416.177Z" transform="translate(-575.68 -416.177)" fill="#524d87" fill-rule="evenodd"/>
              <path id="Path_105" d="M709.962,452.616c-19.423,2.176-70.847-2.31-72.913-.272-1.972,1.947-1.642,35.807-6.066,55.405l.673-1.851c4.16-11.554,8.479-25.606,9.927-36a71.222,71.222,0,0,0,0-15.986l2.369.458c11.164,2.1,58.719,10.3,75.984,1.392q14.033-7.241,11.452-24.059Q726.945,450.713,709.962,452.616Z" transform="translate(-573.768 -414.807)" fill="rgba(255,255,255,0.05)" fill-rule="evenodd"/>
            </g>
            <path id="Path_106" d="M705.035,338.023c-13.46,44.091-21.532,106.6,20.5,95.725-22.329-41.113,8.027-59.617,1.146-80.865C724.332,345.618,705.21,337.453,705.035,338.023Z" transform="translate(-568.191 -337.995)" fill="#ea5455" fill-rule="evenodd"/>
            <path id="Path_107" d="M719.942,354.85c-15.212,2.3-2.672,28.856-7.694,32.858s-13.762,4.433-14.7,6.878q-2.84,7.37,27.469,37.208l.254.473c-19.452-35.813,1.075-54.471,2.143-72.731Q724.029,354.234,719.942,354.85Z" transform="translate(-567.918 -336.514)" fill="rgba(0,0,0,0.16)" fill-rule="evenodd"/>
            <path id="Path_108" d="M682.665,339c-5.136,12.882-7.605,22.991-9.909,41.9-1.921,15.749-.959,48.248-.959,48.248L665.45,430.4s-4.538-50.209-3.021-56.674a254.968,254.968,0,0,1,7.633-27.1C671.914,341.174,682.665,339,682.665,339Z" transform="translate(-571.021 -337.906)" fill="#ea5455" fill-rule="evenodd"/>
          </g>
          <g id="RArm_3" transform="translate(104.375 64.186)">
            <path id="Path_109" d="M703.963,384.864s-8.288-8.3-11.157-9.261-18.592-2.12-18.486.057c.121,2.331,10.237,2.2,11.173,3.344s2.236,10.073,5.772,10.953,10.845,3.486,10.845,3.486l32.564,16.825L731.2,393.443Z" transform="translate(-674.319 -344.472)" fill="#fff" fill-rule="evenodd"/>
            <path id="Path_110" d="M725.977,352.157c9.878,13.941,18.312,35.177,21.549,43.456s-.028,20.766-14.263,18.315a30.731,30.731,0,0,1-4.452-1.365c-5.233-7.175-6.152-13.334-4.2-18.819l1.841.777s-14.148-25.077-17.6-31.8C703.081,351.494,717.277,339.874,725.977,352.157Z" transform="translate(-671.391 -346.9)" fill="#ea5455" fill-rule="evenodd"/>
            <path id="Path_111" d="M725.141,391.056s7.187,3.509,6.282,1.966-9.019-6.841-9.019-6.841Z" transform="translate(-670.078 -343.434)" fill="rgba(0,0,0,0.16)" fill-rule="evenodd"/>
          </g>
        </g>
        <g id="Example_Ipad1" data-name="Example Ipad1" transform="translate(571.637 274.374)">
          <g id="Group_3_2" data-name="Group 3_2">
            <path id="Rectangle_28" d="M586.973,348.831a2.681,2.681,0,0,1,1.953-3.251l25.539-6.368a2.681,2.681,0,0,1,3.251,1.953l9.274,37.2a2.682,2.682,0,0,1-1.952,3.25l-25.54,6.367a2.681,2.681,0,0,1-3.25-1.952Z" transform="translate(-586.893 -339.132)" fill="#fff" fill-rule="evenodd"/>
            <path id="Rectangle_29" d="M587.889,349.381a2.683,2.683,0,0,1,1.953-3.251l25.539-6.367a2.681,2.681,0,0,1,3.251,1.953l9.274,37.2a2.682,2.682,0,0,1-1.952,3.25l-25.54,6.367a2.682,2.682,0,0,1-3.251-1.953Z" transform="translate(-586.812 -339.084)" fill="#518df8" fill-rule="evenodd"/>
            <path id="Rectangle_30" d="M588.89,349.624a2.414,2.414,0,0,1,1.758-2.925l24.019-5.988a2.414,2.414,0,0,1,2.926,1.757l8.385,33.629a2.414,2.414,0,0,1-1.759,2.925L600.2,385.011a2.414,2.414,0,0,1-2.925-1.757Z" transform="translate(-586.723 -338.999)" fill="#fff"/>
          </g>
        </g>
        <g id="Group_26_10" data-name="Group 26_10" transform="translate(215.694 338.295)">
          <g id="Group_25" data-name="Group 25" transform="translate(13.043)">
            <path id="Rectangle_31" d="M384.2,397.871h12.424V555.531H384.2Z" transform="translate(-261.874 -397.871)" fill="#e9e9e9" fill-rule="evenodd"/>
            <path id="Rectangle_32" d="M272.375,402.634H370.52v29.282H288.729v123.2H272.375Z" transform="translate(-271.739 -397.451)" fill="#d3d3d3" fill-rule="evenodd"/>
            <path id="Rectangle_33" d="M271.791,402.634H280.5V555.111h-8.706Z" transform="translate(-271.791 -397.451)" fill="#dbdbdb" fill-rule="evenodd"/>
          </g>
          <g id="Group_25_2" data-name="Group 25_2">
            <path id="Rectangle_34" d="M664.43,402.634h17.411V555.111H664.43Z" transform="translate(-224.111 -397.451)" fill="#e9e9e9" fill-rule="evenodd"/>
            <path id="Rectangle_35" d="M664.43,397.871h10.882V555.531H664.43Z" transform="translate(-224.111 -397.871)" fill="#dbdbdb" fill-rule="evenodd"/>
            <path id="Rectangle_36" d="M532.006,402.634H683.268v28.9h-130.9V555.111H532.006Z" transform="translate(-235.793 -397.451)" fill="#d3d3d3" fill-rule="evenodd"/>
            <path id="Rectangle_37" d="M283.59,397.871H554.435V441.65H283.59Z" transform="translate(-257.707 -397.871)" fill="#dbdbdb" fill-rule="evenodd"/>
            <path id="Rectangle_38" d="M526.771,402.634h12.424v38.6H526.771Z" transform="translate(-236.254 -397.451)" fill="#e9e9e9" fill-rule="evenodd"/>
            <path id="Rectangle_39" d="M532.041,402.634h9.794V555.111h-9.794Z" transform="translate(-235.789 -397.451)" fill="#dbdbdb" fill-rule="evenodd"/>
            <path id="Rectangle_40" d="M533.477,405.645a7.774,7.774,0,0,1,7.773-7.774H699.178a7.774,7.774,0,0,1,7.773,7.774h0a7.773,7.773,0,0,1-7.773,7.773H541.25a7.773,7.773,0,0,1-7.773-7.773Z" transform="translate(-235.663 -397.871)" fill="#e9e9e9" fill-rule="evenodd"/>
            <path id="Rectangle_41" d="M280.736,400.729H551.582v15.547H280.736Z" transform="translate(-257.959 -397.619)" fill="#e9e9e9" fill-rule="evenodd"/>
            <path id="Rectangle_42" d="M259.8,405.645a7.774,7.774,0,0,1,7.773-7.774H568.43a7.774,7.774,0,0,1,7.774,7.774h0a7.773,7.773,0,0,1-7.774,7.773H267.578a7.773,7.773,0,0,1-7.773-7.773Z" transform="translate(-259.805 -397.871)" fill="#dbdbdb" fill-rule="evenodd"/>
          </g>
        </g>
        <g id="Men2.8" transform="translate(190.962 221.207)">
          <g id="RLeg_3" transform="translate(30.434 148.692)">
            <path id="Path_112" d="M305.085,507.238l-8.595,27.905,18.028.654s-2.036-9.546.871-18.494a74.233,74.233,0,0,1,4.234-10.768Z" transform="translate(-262.271 -419.889)" fill="#92691f" fill-rule="evenodd"/>
            <path id="Path_113" d="M314.244,526.378s6.881,6.377,13.5,8.74,9.151,2.389,9.622,3.278l.086.17c1.361,2.81.535,6.542-14.548,6.749-3.666.05-7.478-2.08-17.6-4.333l-.731,3.939q-8.495-.113-9.913-2.678c-1.426-2.558,1-15.175,2.668-15.414s2,4.893,6.488,5S314.244,526.378,314.244,526.378Z" transform="translate(-262.47 -418.139)" fill="#391b0b" fill-rule="evenodd"/>
            <path id="Combined_Shape_3" data-name="Combined Shape_3" d="M326.121,534.955a5.61,5.61,0,0,1-.741.542,5.934,5.934,0,0,1-4.559.643,9.711,9.711,0,0,1-3.323-1.734,31.606,31.606,0,0,1-3.3-2.863c-1.015-1-1.908-1.964-2.544-2.684-.32-.359-.575-.656-.751-.864-.028-.033-.054-.063-.077-.091.149-.115.293-.227.429-.336l.063.076c.174.2.427.5.743.855.631.712,1.515,1.67,2.518,2.656a31.183,31.183,0,0,0,3.237,2.812,9.2,9.2,0,0,0,3.122,1.641,5.391,5.391,0,0,0,4.154-.576,5.16,5.16,0,0,0,.44-.3C325.73,534.809,325.925,534.884,326.121,534.955Z" transform="translate(-261.006 -418.034)" fill="#81411e" fill-rule="evenodd"/>
            <path id="Path_114-2" data-name="Path_114" d="M266.769,426.913s71.6,5.725,81.462,6.031,17.4,14.385,9.762,27.382c-8.579,14.59-31.89,56.591-36.448,66.3-3.854,8.211-21.372,4.846-18.22-7.7,3.764-15.011,10.778-48.687,25.761-61.936,0,0-36.441,13.212-56.967.4C260.409,450.085,266.769,426.913,266.769,426.913Z" transform="translate(-265.045 -426.913)" fill="#7a3636" fill-rule="evenodd"/>
            <path id="Path_115" d="M352.013,458.82l-1.116,1.914c-4.342,7.5-11.353,20.183-18.047,32.531l.351-1.131c5.178-16.474,13.221-35.882,16.66-41.8a33.7,33.7,0,0,1,4.923-6.346A21.151,21.151,0,0,1,352.013,458.82Z" transform="translate(-259.063 -425.407)" fill="rgba(255,255,255,0.19)" fill-rule="evenodd"/>
          </g>
          <g id="LLeg_4" transform="translate(38.085 151.055)">
            <path id="Path_116" d="M377.007,507.48s4.786,21.283,11.016,23.561c2.4.877-18.382,3.381-18.382,3.381L364.424,514Z" transform="translate(-263.928 -422.169)" fill="#92691f" fill-rule="evenodd"/>
            <path id="Path_117" d="M366.488,525.815l-.347,17.967,7.163.055.073-4.039a56.843,56.843,0,0,0,9.363,4.525c5.084,1.588,25.172.756,27.44-1.663s2.319-6.3-2.341-6.772-12.363-1.889-15.68-4.428c-4.012-3.059-5.539-7.912-6.7-7.917-1.784-.007-1.922,5.7-10.975,5.784C371.034,529.357,366.488,525.815,366.488,525.815Z" transform="translate(-263.777 -420.752)" fill="#391b0b" fill-rule="evenodd"/>
            <path id="Path_118" d="M382.186,525.145s4.62,7.208,7.365,8.252a6.474,6.474,0,0,0,4.96-.126s-4.736-1.887-6.565-5.18C383.8,520.631,382.974,524.425,382.186,525.145Z" transform="translate(-262.361 -420.752)" fill="#81411e" fill-rule="evenodd"/>
            <path id="Path_119" d="M272.075,432.505s-.1,22.874,15.269,28.624,65.417,3.586,65.417,3.586,15.881,58.435,19.687,64.126,21.85,6.281,20.874-6.828-8.025-61.776-9.387-73.317-5.634-14.307-18.129-16.374c-4.392-.727-2.528-1.891-30.761-3.214-6.064-.284-16.237,1.986-25.586,3.014S272.075,432.505,272.075,432.505Z" transform="translate(-272.075 -429.085)" fill="#7a3636" fill-rule="evenodd"/>
            <path id="Path_120" d="M317.977,433v-2.656l1.251-.187A67.313,67.313,0,0,1,331,429.109l3.246.158c24.847,1.257,23.3,2.358,27.514,3.056l.812.137c11.6,2.01,15.8,4.819,17.223,15.489l.4,3.211c1.88,14.791,8.159,58.533,9.083,70.855a12.091,12.091,0,0,1-.089,2.73l-3.658-18.421q-8.086-40.965-9.063-48.545l-.136-1.05c-1.218-8.97-4.4-20.1-14.686-19.375l-.888.075q-10.86.826-41.188-4.167Z" transform="translate(-268.026 -429.084)" fill="rgba(255,255,255,0.19)" fill-rule="evenodd"/>
            <ellipse id="Oval_10" cx="4.109" cy="7.197" rx="4.109" ry="7.197" transform="translate(120.851 13.639) rotate(13)" fill="rgba(255,255,255,0.19)"/>
          </g>
          <g id="RArm_4" transform="translate(0 56.32)">
            <path id="Path_121" d="M282.695,404.315s16.749,3.877,16.579,5.4-7.54,1.765-7.54,1.765,13.631,8.8,12.546,10.52-9.972,3.652-13.66,2.267S277.367,412.8,277.367,412.8Z" transform="translate(-233.523 -336.534)" fill="#fff" fill-rule="evenodd"/>
            <path id="Path_122" d="M286.4,360.188c-5.61,6.923-24.738,28.073-24.738,28.073s19.129,13.623,23.945,16.506c7.9,4.723-.134,17.254-5.926,15.862-7.849-1.89-27.663-15.559-36.974-21.092s-5.748-14.464,1.14-22.613c5.292-6.26,16.794-19.085,24.887-30.344C276.787,335.378,297.287,346.753,286.4,360.188Z" transform="translate(-237.078 -342.029)" fill="#ea5455" fill-rule="evenodd"/>
            <path id="Path_15-2" data-name="Path 15" d="M260.064,384.513s-5.386,5.189-4.826,5.59,7.049-3.995,7.049-3.995Z" transform="translate(-235.479 -338.281)" fill="rgba(0,0,0,0.16)" fill-rule="evenodd"/>
          </g>
          <g id="Head_4" transform="translate(48.703)">
            <path id="Path_123" d="M315.851,312.764c4.7.515,4.37,8.795-1.356,9.227-1.171,7.982-5.344,11.784-10.434,12.224l.282,12.073-22.51-.013a35.3,35.3,0,0,0,6.023-20.2c-.317-11.675.211-22.644.211-22.644l29.157.523Z" transform="translate(-281.833 -289.114)" fill="#fff" fill-rule="evenodd"/>
            <path id="Path_124" d="M306.6,291.4c17.343,4.378,10.188,22.869,10.188,22.869-5.24-.715-10.283,5.644-12.195,11.879-5.529,5.684-12.691,5.674-17.453,2.364,0,0-6.552-20.266-4.409-27.014S290.792,287.415,306.6,291.4Z" transform="translate(-281.792 -290.275)" fill="#2c272e" fill-rule="evenodd"/>
          </g>
          <g id="Body_4" transform="translate(29.28 50.601)">
            <path id="Path_125" d="M267.219,346.039c-1.557,2.651-2.673,13.328,0,55.63,1.384,21.9-4.5,43.494-2.982,53s11.977,10.639,11.977,10.639l6.1-19.837,2.869,19.837s43.239-4.043,47.028-13.887c3.8-9.865-.972-33.055-2.106-54.892-1.138-21.923-.284-44.426-2.38-47.837-4.182-6.808-14.947-9.988-21.627-11.006-8.478-1.292-19.424-1.342-25.93.722S268.776,343.388,267.219,346.039Z" transform="translate(-263.984 -336.774)" fill="#ea5455" fill-rule="evenodd"/>
            <path id="Path_126" d="M307.385,359.131q5.119,37.762,13.689,52.995,3.544,6.3,7.2,5.193l-.579-5.579c-.577-5.646-1.124-11.462-1.421-17.185-.208-3.991-.348-8-.454-11.912Z" transform="translate(-260.156 -334.801)" fill="rgba(0,0,0,0.16)" fill-rule="evenodd"/>
            <path id="Path_127" d="M278.947,338.405q-.591.188-1.145.39c9.342,4.073,24.768,3.529,33.154.211a50.922,50.922,0,0,0-6.079-1.322C296.4,336.392,285.454,336.342,278.947,338.405Z" transform="translate(-262.765 -336.774)" fill="#e5aa41" fill-rule="evenodd"/>
          </g>
          <g id="LArm_4" transform="translate(74.511 57.913)">
            <path id="Path_128" d="M384.649,381.585s13.913-9.288,16.371-11.153,5.527-15.943,3.62-17.92c-.921-.955-7.881,5.478-9.123,6.34s-7.545,4.655-7.545,4.655,1.786-10.781.248-11.65c-1.137-.633-3.413,2.142-3.716,5.074s-3.468,6.758-3.876,11.209c-.185,1.945-2.1,5.659-2.1,5.659Z" transform="translate(-299.11 -342.763)" fill="#fff" fill-rule="evenodd"/>
            <path id="Path_129" d="M308.23,364.5c5.331,11.077,14.385,27.273,19.358,36.769,5.885,11.237,12.9,16,27.041,7.66,11.845-6.983,28.926-18.214,37.751-24.318,8.213-5.68-1.5-19.7-9.254-14.965-10.292,6.277-36.614,18.716-36.614,18.716s-13.545-24.743-19.169-36.622C320.19,336.646,297.913,343.066,308.23,364.5Z" transform="translate(-305.548 -343.493)" fill="#ea5455" fill-rule="evenodd"/>
            <path id="Path_130" d="M343.193,384.829s2.477,8.723,3.061,8.379-.41-9.63-.41-9.63Z" transform="translate(-302.228 -339.957)" fill="rgba(0,0,0,0.16)" fill-rule="evenodd"/>
          </g>
        </g>
        <g id="Chair8" transform="translate(188.308 302.306)">
          <path id="Path_131" d="M293.778,463.221l-12.452,88.1,6.529-.086,12.453-87.093Z" transform="translate(-230.52 -356.118)" fill="#bfe7ff" fill-rule="evenodd"/>
          <path id="Path_132" d="M331.459,463.221l12.452,88.1-6.528-.086-12.453-87.093Z" transform="translate(-226.674 -356.118)" fill="#91d6ff" fill-rule="evenodd"/>
          <path id="Path_133" d="M258.893,463.221l-12.452,88.1,6.529-.086,12.452-87.093Z" transform="translate(-233.598 -356.118)" fill="#bfe7ff" fill-rule="evenodd"/>
          <path id="Path_134" d="M344.187,477.085a10.279,10.279,0,0,0,10.278-10.278h0a10.278,10.278,0,0,0-10.278-10.278H303.093a12.067,12.067,0,0,1-12.013-10.937l-6.571-69.856A12.066,12.066,0,0,0,272.5,364.8H246.706a12.067,12.067,0,0,0-12.031,12.991l6.774,88.152a12.066,12.066,0,0,0,12.03,11.142Z" transform="translate(-234.639 -364.8)" fill="#bfe7ff" fill-rule="evenodd"/>
          <path id="Combined_Shape_4" data-name="Combined Shape_4" d="M350.881,466.581H294.143a12.066,12.066,0,0,1-12.03-11.139l-6.864-89.08a12.059,12.059,0,0,1,5.834,9.232l6.565,69.6A12.067,12.067,0,0,0,299.66,456.13h40.971a10.252,10.252,0,0,1,10.252,10.252C350.883,466.448,350.882,466.515,350.881,466.581Z" transform="translate(-231.056 -364.662)" fill="#91d6ff" fill-rule="evenodd"/>
        </g>
        <g id="Front_Laptop3" data-name="Front Laptop3" transform="translate(448.081 293.052)">
          <path id="Rectangle_43" d="M566.536,396.609a.812.812,0,0,0-.812-.813H474.166a.812.812,0,0,0-.813.813V397.8a.812.812,0,0,0,.813.813h91.558a.812.812,0,0,0,.812-.813Z" transform="translate(-473.353 -352.811)" fill="#fff" fill-rule="evenodd"/>
          <path id="Rectangle_44" d="M561.973,396.609a.812.812,0,0,0-.812-.813H525.983a.813.813,0,0,0-.813.813V397.8a.813.813,0,0,0,.813.813h35.179a.812.812,0,0,0,.812-.813Z" transform="translate(-468.782 -352.811)" fill="#518df8" fill-rule="evenodd"/>
          <path id="Rectangle_45" d="M571.016,360.711a3.918,3.918,0,0,0-3.886-4.415H506.4a3.917,3.917,0,0,0-3.886,3.42l-4.517,35.272a3.917,3.917,0,0,0,3.886,4.415h60.734a3.918,3.918,0,0,0,3.886-3.42Z" transform="translate(-471.182 -356.296)" fill="#518df8" fill-rule="evenodd"/>
          <path id="Rectangle_46" d="M569.212,360.711a3.917,3.917,0,0,0-3.885-4.415H505.876a3.918,3.918,0,0,0-3.886,3.42l-4.517,35.272a3.918,3.918,0,0,0,3.886,4.415H560.81a3.919,3.919,0,0,0,3.886-3.42Z" transform="translate(-471.228 -356.296)" fill="#fff" fill-rule="evenodd"/>
          <path id="Rectangle_47" d="M566.91,362.143a3.525,3.525,0,0,0-3.5-3.973H507.089a3.525,3.525,0,0,0-3.5,3.079l-4.07,31.816a3.525,3.525,0,0,0,3.5,3.973h56.324a3.526,3.526,0,0,0,3.5-3.079Z" transform="translate(-471.047 -356.131)" fill="#fff"/>
        </g>
        <g id="Wom3.8" transform="translate(351.623 227.437)">
          <g id="RArm_5" transform="translate(0 59.588)">
            <path id="Path_135" d="M426.948,407.487s14.8,3.453,14.651,4.808-6.663,1.571-6.663,1.571,12.045,7.838,11.087,9.367-8.812,3.252-12.072,2.019-11.711-10.209-11.711-10.209L398.53,402.31l7.924-10.451Z" transform="translate(-383.496 -347.132)" fill="#fff" fill-rule="evenodd"/>
            <path id="Path_136" d="M428.3,366.928c-4.958,6.165-21.861,25-21.861,25l3.336,2.5-10.852,13.164s-6.93-4.246-9.236-5.626c-8.228-4.926-5.08-12.879,1.008-20.136,4.676-5.574,14.841-16.994,21.993-27.019C419.807,344.836,437.922,354.964,428.3,366.928Z" transform="translate(-384.715 -350.758)" fill="#ffb66f" fill-rule="evenodd"/>
            <path id="Path_15_2" data-name="Path 15_2" d="M405.028,388.587s-4.76,4.621-4.265,4.979,6.229-3.557,6.229-3.557Z" transform="translate(-383.302 -347.421)" fill="rgba(0,0,0,0.16)" fill-rule="evenodd"/>
            <path id="Path_76-2" data-name="Path 76" d="M408.274,389.623l-14.145,14,7.072,4.628,9.717-16.633Z" transform="translate(-383.884 -347.329)" fill="#ffedc2" fill-rule="evenodd"/>
          </g>
          <g id="LLeg_5" transform="translate(21.652 143.648)">
            <path id="Path_137" d="M449.255,505.283,441.6,529.93l12.861.578s-1.813-8.432.775-16.334a65.11,65.11,0,0,1,3.77-9.511Z" transform="translate(-401.348 -421.241)" fill="#fff" fill-rule="evenodd"/>
            <path id="Path_138" d="M454.913,521.947s-.269,6.275,1.923,8.258,13.813,9.3,14.787,10.777-.455,3.277-.455,3.277-11.866,1.861-17.464-1.011c-4.041-2.074-6.928-3.768-6.928-3.768l-1.241,3.187-6.479-.93s-2-5.059-1.139-7.575,5.287-14.272,5.287-14.272Z" transform="translate(-401.692 -419.898)" fill="#391b0b" fill-rule="evenodd"/>
            <path id="Path_139" d="M415.1,428.033c9.673.944,57.32,12.291,67.13,14.307s18.1,12.92,10.624,25.547c-8.4,14.174-32.156,58.224-32.156,58.224a1.914,1.914,0,0,1-.438.1c-4.832,0-9.139-.662-13.286-3.552,0,0,6.3-46.189,20.974-59.061,0,0-37.889,13.623-56.838-1.242C399.929,453.587,404.437,426.993,415.1,428.033Z" transform="translate(-404.611 -428.004)" fill="#33373e" fill-rule="evenodd"/>
            <path id="Combined_Shape_5" data-name="Combined Shape_5" d="M482.784,444.255l-2.6,32.671.635-1.13,2.479-31.126Q483.045,444.457,482.784,444.255Z" transform="translate(-397.945 -426.57)" fill="rgba(255,255,255,0.19)" fill-rule="evenodd"/>
          </g>
          <g id="RLeg_4" transform="translate(35.438 140.566)">
            <path id="Path_140" d="M514.738,503.444s4.219,18.794,9.709,20.8c2.114.774-13.043,2.985-13.043,2.985l-4.6-18.03Z" transform="translate(-409.382 -418.266)" fill="#fff" fill-rule="evenodd"/>
            <path id="Path_141" d="M509.257,520.7l4,23.528,6.938-1.1-.856-5.818s3.043,5.068,6.437,4.849,20.426-2.786,20.426-2.786.383-5.635-7.447-6.922c-6.513-1.07-17.618-13.643-17.618-13.643Z" transform="translate(-409.166 -416.911)" fill="#391b0b" fill-rule="evenodd"/>
            <path id="Path_142" d="M422.1,425.171s-13.964,29.577,5.66,39.732c18.977,9.821,69.475-2.85,69.475-2.85a69.328,69.328,0,0,0,0,15.508c2.651,19.095,15.69,42.587,16.876,46.459.6,1.949,15.14-.932,15.14-3.244s-7.419-54.943-8.741-66.153-5.462-12.839-17.576-15.9c-2.784-.7-38.854-8.908-41.869-8.669C435.156,432.106,422.1,425.171,422.1,425.171Z" transform="translate(-417.28 -425.171)" fill="#42474f" fill-rule="evenodd"/>
            <path id="Path_143" d="M458.67,429.656c3.015-.24,39.085,7.965,41.869,8.669l1.988.51c10.334,2.7,14.163,4.72,15.494,14.643l.358,2.849c1.09,8.313,4.037,27.863,6.369,44.138a115.28,115.28,0,0,1-6.533-19.912c-4.018-17-3.158-30.954-4.236-33.4s-53.845-10.247-62.911-11.857q-5.921-1.051-6.678-5.215A133.752,133.752,0,0,0,458.67,429.656Z" transform="translate(-414.888 -424.776)" fill="rgba(255,255,255,0.19)" fill-rule="evenodd"/>
          </g>
          <g id="Head_5" transform="translate(39.952 3.264)">
            <path id="Path_144" d="M453.659,321.551c4.192.459,3.895,7.838-1.208,8.224-1.043,7.113-4.762,10.5-9.3,10.893l.251,10.759-20.059-.012a31.458,31.458,0,0,0,5.367-18c-.282-10.406.189-20.18.189-20.18l25.98.467Z" transform="translate(-421.258 -297.744)" fill="#fff" fill-rule="evenodd"/>
            <path id="Path_145" d="M454.743,323.237c-4.883-1.933-8.489,6.39-12.225,12.175s-13.413,4.8-14.747,0c-5.05-10.518-9.4-24.816-3.51-25.989C425.091,294.223,464.826,297.812,454.743,323.237Z" transform="translate(-421.428 -298.877)" fill="#9e5229" fill-rule="evenodd"/>
            <path id="Combined_Shape_6" data-name="Combined Shape_6" d="M427.07,303.156H435.8l.082.09c7.649,8.549,9.362,21.139,5.787,32.494a8.061,8.061,0,0,1-.9.982c4-11.459,2.47-24.358-5.214-33.022H426.43Q426.735,303.418,427.07,303.156Z" transform="translate(-420.986 -298.633)" fill="rgba(0,0,0,0.2)" fill-rule="evenodd"/>
            <ellipse id="Oval_11" cx="4.789" cy="4.795" rx="4.789" ry="4.795" transform="translate(16.149 9.59) rotate(180)" fill="#fb9934"/>
          </g>
          <g id="Body_5" transform="translate(25.699 53.901)">
            <path id="Path_146" d="M459.89,350.357c4.44,6.514,11.841,28.622,12.261,33.6.472,5.737-5.687,14.877-5.788,23.182s4.594,29.1,3.187,31.434S421.78,454.412,419.169,453.3s-11.631-13.08-9.57-17.945,10.632-15.9,9.651-22.529-6.591-31.092-9.384-39.42-1.854-17.069,3.336-20.652a35.2,35.2,0,0,1,21.628-6.786C447.037,345.993,459.545,349.852,459.89,350.357Z" transform="translate(-408.33 -345.493)" fill="#ff9f43" fill-rule="evenodd"/>
            <path id="Path_147" d="M466.582,377.205,445.3,361.916l.007,2.793c.078,17.245,1.164,26.381,19.226,54.641l-.418-2.88a81.484,81.484,0,0,1-1.015-10.743c.063-5.24,2.539-10.811,4.239-15.652Z" transform="translate(-405.068 -344.087)" fill="rgba(0,0,0,0.16)" fill-rule="evenodd"/>
            <path id="Path_68-2" data-name="Path 68" d="M444.879,345.532s.514,2.8-1.735,2.8-17.332.5-19.375-.39-1.429-2.411-1.429-2.411Z" transform="translate(-407.102 -345.532)" fill="#fff6e1" fill-rule="evenodd"/>
          </g>
          <g id="LArm_5" transform="translate(63.135 58.084)">
            <path id="Path_148" d="M515.239,382.994s12.281-8.2,14.453-9.844,4.878-14.071,3.2-15.814c-.813-.844-6.958,4.834-8.054,5.595s-6.661,4.109-6.661,4.109,1.577-9.515.22-10.283c-1-.558-3.012,1.89-3.281,4.478s-3.061,5.964-3.422,9.892a26.688,26.688,0,0,1-.8,3.94L476.813,389.7l3.566,15.913Z" transform="translate(-439.726 -348.731)" fill="#fff" fill-rule="evenodd"/>
            <path id="Path_149" d="M445.1,367.918c4.705,9.778,12.7,24.07,17.089,32.451,5.2,9.918,11.386,14.12,23.872,6.76,1.461-.861,4.623-2.78,4.623-2.78l-7.731-17.163-4.057,1.792s-11.958-21.836-16.923-32.32C455.658,343.332,435.991,349,445.1,367.918Z" transform="translate(-442.732 -349.375)" fill="#ffb66f" fill-rule="evenodd"/>
            <path id="Path_150" d="M475.964,385.857s2.186,7.7,2.7,7.394-.362-8.5-.362-8.5Z" transform="translate(-439.801 -346.254)" fill="rgba(0,0,0,0.16)" fill-rule="evenodd"/>
            <path id="Path_75-2" data-name="Path 75" d="M479.591,383.558l5.384,21.367,8.01-4.332-10.512-18.7Z" transform="translate(-439.481 -346.507)" fill="#ffedc2" fill-rule="evenodd"/>
          </g>
          <path id="Path_151-2" data-name="Path_151" d="M434.045,300.516s-4.514-5.778-9.726-4.263-9.929,10.808-7.69,19.542.391,13.718-2.311,19.605c-7.261,15.837,17.875,25.892,17.875,25.892s-1.961-11.734,1.853-18.821c3.93-7.3,6.16-16.656,6.16-22.382C440.205,310.131,434.045,300.516,434.045,300.516Z" transform="translate(-382.219 -296)" fill="#9e5229" fill-rule="evenodd"/>
        </g>
        <g id="Chair8_2" transform="translate(334.157 302.306)">
          <path id="Path_152" d="M432.186,463.221l12.452,88.1-6.529-.086-12.453-87.093Z" transform="translate(-363.637 -356.118)" fill="#91d6ff" fill-rule="evenodd"/>
          <path id="Path_153" d="M465.484,463.221l12.452,88.1-6.528-.086-12.453-87.093Z" transform="translate(-360.7 -356.118)" fill="#91d6ff" fill-rule="evenodd"/>
          <path id="Path_154" d="M392.919,463.221l-12.452,88.1,6.528-.086,12.452-87.093Z" transform="translate(-367.624 -356.118)" fill="#bfe7ff" fill-rule="evenodd"/>
          <path id="Path_155" d="M478.212,477.085a10.278,10.278,0,0,0,10.278-10.278h0a10.277,10.277,0,0,0-10.278-10.278H437.119a12.065,12.065,0,0,1-12.013-10.937l-6.571-69.856A12.067,12.067,0,0,0,406.522,364.8H380.731a12.066,12.066,0,0,0-12.03,12.991l6.773,88.152a12.066,12.066,0,0,0,12.031,11.142Z" transform="translate(-368.665 -364.8)" fill="#bfe7ff" fill-rule="evenodd"/>
          <path id="Combined_Shape_7" data-name="Combined Shape_7" d="M484.907,466.581h-56.74a12.066,12.066,0,0,1-12.03-11.139l-6.863-89.08a12.059,12.059,0,0,1,5.834,9.232l6.565,69.6a12.066,12.066,0,0,0,12.013,10.933h40.971a10.251,10.251,0,0,1,10.251,10.252C484.908,466.448,484.908,466.515,484.907,466.581Z" transform="translate(-365.082 -364.662)" fill="#91d6ff" fill-rule="evenodd"/>
        </g>
      </g>
    </g>
  </g>
</svg>
